<svg xmlns="http://www.w3.org/2000/svg" width="1553" height="1013" viewBox="0 0 1553 1013" role="img" aria-labelledby="title desc">
  <title id="title">Gold architectural interface</title>
  <desc id="desc">A color-faithful dark abstract architectural interface with graphite panels, warm gold construction lines, dense dotted matrices, small HUD labels, and a bright diagonal beam.</desc>
  <defs>
    <linearGradient id="background" x1="0" y1="0" x2="1553" y2="1013" gradientUnits="userSpaceOnUse">
      <stop stop-color="#030303"/>
      <stop offset=".23" stop-color="#050505"/>
      <stop offset=".45" stop-color="#070808"/>
      <stop offset=".68" stop-color="#030404"/>
      <stop offset="1" stop-color="#010101"/>
    </linearGradient>

    <radialGradient id="centerSmoke" cx="0" cy="0" r="1" gradientUnits="userSpaceOnUse" gradientTransform="translate(962 439) rotate(21) scale(421 342)">
      <stop stop-color="#26292a" stop-opacity=".22"/>
      <stop offset=".4" stop-color="#111314" stop-opacity=".1"/>
      <stop offset="1" stop-color="#000" stop-opacity="0"/>
    </radialGradient>

    <radialGradient id="leftFalloff" cx="0" cy="0" r="1" gradientUnits="userSpaceOnUse" gradientTransform="translate(651 506) rotate(10) scale(742 591)">
      <stop stop-color="#080909" stop-opacity=".1"/>
      <stop offset=".42" stop-color="#030303" stop-opacity=".48"/>
      <stop offset="1" stop-color="#000" stop-opacity=".96"/>
    </radialGradient>

    <radialGradient id="beamNodeGlow" cx="0" cy="0" r="1" gradientUnits="userSpaceOnUse" gradientTransform="translate(1119 386) rotate(-38) scale(178 126)">
      <stop stop-color="#fff4d2" stop-opacity=".9"/>
      <stop offset=".16" stop-color="#ffc15f" stop-opacity=".52"/>
      <stop offset=".54" stop-color="#7c4c1d" stop-opacity=".13"/>
      <stop offset="1" stop-color="#000" stop-opacity="0"/>
    </radialGradient>

    <radialGradient id="lowerNodeGlow" cx="0" cy="0" r="1" gradientUnits="userSpaceOnUse" gradientTransform="translate(1216 592) rotate(8) scale(190 74)">
      <stop stop-color="#fff4d6" stop-opacity=".92"/>
      <stop offset=".18" stop-color="#ffba57" stop-opacity=".56"/>
      <stop offset=".58" stop-color="#493019" stop-opacity=".12"/>
      <stop offset="1" stop-color="#000" stop-opacity="0"/>
    </radialGradient>

    <linearGradient id="panelFill" x1="1125" y1="61" x2="1539" y2="389" gradientUnits="userSpaceOnUse">
      <stop stop-color="#18191b"/>
      <stop offset=".27" stop-color="#1c1d20"/>
      <stop offset=".62" stop-color="#0c0d0f"/>
      <stop offset="1" stop-color="#050506"/>
    </linearGradient>

    <linearGradient id="lowerPanelFill" x1="1216" y1="391" x2="1540" y2="893" gradientUnits="userSpaceOnUse">
      <stop stop-color="#141517"/>
      <stop offset=".22" stop-color="#1c1c1d"/>
      <stop offset=".55" stop-color="#080909"/>
      <stop offset="1" stop-color="#030303"/>
    </linearGradient>

    <linearGradient id="panelSheen" x1="1092" y1="318" x2="1226" y2="106" gradientUnits="userSpaceOnUse">
      <stop stop-color="#fff7df" stop-opacity=".42"/>
      <stop offset=".16" stop-color="#e0caa0" stop-opacity=".18"/>
      <stop offset=".42" stop-color="#5b5c5b" stop-opacity=".09"/>
      <stop offset="1" stop-color="#111" stop-opacity="0"/>
    </linearGradient>

    <linearGradient id="goldLine" x1="0" y1="0" x2="1" y2="0">
      <stop stop-color="#7a5827" stop-opacity="0"/>
      <stop offset=".22" stop-color="#b98437" stop-opacity=".55"/>
      <stop offset=".5" stop-color="#ffe2a1" stop-opacity=".96"/>
      <stop offset=".78" stop-color="#d39a45" stop-opacity=".58"/>
      <stop offset="1" stop-color="#7a5827" stop-opacity="0"/>
    </linearGradient>

    <linearGradient id="goldVertical" x1="0" y1="0" x2="0" y2="1">
      <stop stop-color="#825c29" stop-opacity="0"/>
      <stop offset=".28" stop-color="#d49f4e" stop-opacity=".72"/>
      <stop offset=".48" stop-color="#ffdf98" stop-opacity=".95"/>
      <stop offset=".74" stop-color="#bc7e2f" stop-opacity=".48"/>
      <stop offset="1" stop-color="#5a3c1f" stop-opacity="0"/>
    </linearGradient>

    <linearGradient id="diagonalCore" x1="692" y1="1013" x2="1124" y2="386" gradientUnits="userSpaceOnUse">
      <stop stop-color="#8a6024" stop-opacity="0"/>
      <stop offset=".17" stop-color="#c08b35" stop-opacity=".36"/>
      <stop offset=".46" stop-color="#ffe39c" stop-opacity=".93"/>
      <stop offset=".72" stop-color="#fff8df"/>
      <stop offset=".88" stop-color="#ffc466" stop-opacity=".8"/>
      <stop offset="1" stop-color="#e08326" stop-opacity=".1"/>
    </linearGradient>

    <linearGradient id="diagonalBloom" x1="875" y1="707" x2="1138" y2="374" gradientUnits="userSpaceOnUse">
      <stop stop-color="#f0a03e" stop-opacity="0"/>
      <stop offset=".36" stop-color="#ffd388" stop-opacity=".28"/>
      <stop offset=".7" stop-color="#fff5db" stop-opacity=".88"/>
      <stop offset="1" stop-color="#ffa237" stop-opacity="0"/>
    </linearGradient>

    <linearGradient id="subDiagonal" x1="850" y1="694" x2="1125" y2="388" gradientUnits="userSpaceOnUse">
      <stop stop-color="#72501f" stop-opacity=".06"/>
      <stop offset=".28" stop-color="#d6a049" stop-opacity=".48"/>
      <stop offset=".68" stop-color="#fff1c2" stop-opacity=".95"/>
      <stop offset="1" stop-color="#ffb45c" stop-opacity=".22"/>
    </linearGradient>

    <linearGradient id="topHairline" x1="662" y1="212" x2="1020" y2="212" gradientUnits="userSpaceOnUse">
      <stop stop-color="#18191a" stop-opacity="0"/>
      <stop offset=".22" stop-color="#303235" stop-opacity=".42"/>
      <stop offset=".76" stop-color="#dad2c7" stop-opacity=".52"/>
      <stop offset="1" stop-color="#f6e6c8" stop-opacity="0"/>
    </linearGradient>

    <radialGradient id="dotMaskTop" cx="0" cy="0" r="1" gradientUnits="userSpaceOnUse" gradientTransform="translate(1092 206) rotate(26) scale(234 210)">
      <stop stop-color="#fff"/>
      <stop offset=".54" stop-color="#fff" stop-opacity=".66"/>
      <stop offset="1" stop-color="#fff" stop-opacity="0"/>
    </radialGradient>

    <radialGradient id="dotMaskCenter" cx="0" cy="0" r="1" gradientUnits="userSpaceOnUse" gradientTransform="translate(1036 538) rotate(8) scale(280 342)">
      <stop stop-color="#fff"/>
      <stop offset=".55" stop-color="#fff" stop-opacity=".58"/>
      <stop offset="1" stop-color="#fff" stop-opacity="0"/>
    </radialGradient>

    <radialGradient id="dotMaskBottom" cx="0" cy="0" r="1" gradientUnits="userSpaceOnUse" gradientTransform="translate(1352 912) rotate(0) scale(176 62)">
      <stop stop-color="#fff" stop-opacity=".82"/>
      <stop offset=".72" stop-color="#fff" stop-opacity=".28"/>
      <stop offset="1" stop-color="#fff" stop-opacity="0"/>
    </radialGradient>

    <radialGradient id="mistDots" cx="0" cy="0" r="1" gradientUnits="userSpaceOnUse" gradientTransform="translate(1001 359) rotate(11) scale(212 210)">
      <stop stop-color="#fff" stop-opacity=".78"/>
      <stop offset=".55" stop-color="#fff" stop-opacity=".36"/>
      <stop offset="1" stop-color="#fff" stop-opacity="0"/>
    </radialGradient>

    <radialGradient id="finalVignette" cx="0" cy="0" r="1" gradientUnits="userSpaceOnUse" gradientTransform="translate(1067 444) rotate(12) scale(795 535)">
      <stop stop-color="#000" stop-opacity="0"/>
      <stop offset=".7" stop-color="#000" stop-opacity=".18"/>
      <stop offset="1" stop-color="#000" stop-opacity=".88"/>
    </radialGradient>

    <pattern id="tightDots" width="12" height="12" patternUnits="userSpaceOnUse">
      <circle cx="1.55" cy="1.55" r=".94" fill="#f5bf68" opacity=".66"/>
    </pattern>

    <pattern id="microDots" width="10" height="10" patternUnits="userSpaceOnUse">
      <circle cx="1.25" cy="1.25" r=".56" fill="#e6ae56" opacity=".45"/>
    </pattern>

    <pattern id="fineGrid" width="64" height="64" patternUnits="userSpaceOnUse">
      <path d="M64 0H0V64" fill="none" stroke="#b98b45" stroke-opacity=".08" stroke-width=".8"/>
      <path d="M32 0V64M0 32H64" fill="none" stroke="#f0c57b" stroke-opacity=".035" stroke-width=".65"/>
    </pattern>

    <pattern id="surfaceHair" width="72" height="72" patternUnits="userSpaceOnUse">
      <path d="M6 58C20 45 33 37 54 31M18 71C30 49 48 41 70 35M-9 22C14 19 35 24 59 38" fill="none" stroke="#c6aa79" stroke-opacity=".065" stroke-width=".8"/>
      <path d="M14 12C27 7 42 8 56 15M25 25C39 18 50 17 68 21" fill="none" stroke="#fff7e2" stroke-opacity=".032" stroke-width=".7"/>
    </pattern>

    <filter id="grain" x="-20%" y="-20%" width="140%" height="140%">
      <feTurbulence type="fractalNoise" baseFrequency=".74" numOctaves="4" seed="45" result="noise"/>
      <feColorMatrix in="noise" type="saturate" values="0"/>
      <feComponentTransfer>
        <feFuncA type="table" tableValues="0 .19"/>
      </feComponentTransfer>
    </filter>

    <filter id="softBlur" x="-100%" y="-100%" width="300%" height="300%">
      <feGaussianBlur stdDeviation="7"/>
    </filter>

    <filter id="beamBlur" x="-100%" y="-100%" width="300%" height="300%">
      <feGaussianBlur stdDeviation="13"/>
    </filter>

    <filter id="smallGlow" x="-120%" y="-120%" width="340%" height="340%">
      <feGaussianBlur stdDeviation="2.8"/>
    </filter>

    <mask id="topDotsFade">
      <rect width="1553" height="1013" fill="black"/>
      <rect x="889" y="25" width="334" height="344" fill="url(#dotMaskTop)"/>
      <rect x="1268" y="18" width="190" height="84" fill="url(#dotMaskBottom)"/>
    </mask>

    <mask id="centerDotsFade">
      <rect width="1553" height="1013" fill="black"/>
      <rect x="842" y="271" width="386" height="598" fill="url(#dotMaskCenter)"/>
    </mask>

    <mask id="bottomDotsFade">
      <rect width="1553" height="1013" fill="black"/>
      <rect x="1183" y="856" width="350" height="112" fill="url(#dotMaskBottom)"/>
    </mask>

    <mask id="mistDotsFade">
      <rect width="1553" height="1013" fill="black"/>
      <rect x="816" y="185" width="304" height="334" fill="url(#mistDots)"/>
    </mask>

    <clipPath id="sceneClip">
      <rect width="1553" height="1013"/>
    </clipPath>
  </defs>

  <g clip-path="url(#sceneClip)">
    <rect width="1553" height="1013" fill="url(#background)"/>
    <rect width="1553" height="1013" fill="url(#centerSmoke)"/>
    <rect width="1553" height="1013" fill="url(#leftFalloff)"/>
    <rect width="1553" height="1013" filter="url(#grain)" opacity=".42"/>

    <g opacity=".36">
      <path d="M0 254H643M0 316H552M0 641H869M0 1012H1553" stroke="#0d0e0e" stroke-width="1"/>
      <path d="M438 742C588 698 728 678 854 694" stroke="#3f3420" stroke-opacity=".22" fill="none"/>
      <path d="M526 784C669 724 785 698 904 696" stroke="#a2702f" stroke-opacity=".1" fill="none"/>
    </g>

    <g mask="url(#topDotsFade)" opacity=".86">
      <rect x="886" y="24" width="334" height="345" fill="url(#tightDots)"/>
      <rect x="1265" y="16" width="196" height="90" fill="url(#microDots)" opacity=".74"/>
      <circle cx="987" cy="141" r="3.2" fill="#ffd99b" opacity=".98"/>
      <circle cx="987" cy="141" r="11" fill="#ff9e38" opacity=".22" filter="url(#softBlur)"/>
    </g>

    <g mask="url(#mistDotsFade)" opacity=".7">
      <rect x="812" y="184" width="319" height="335" fill="url(#microDots)"/>
      <g fill="#f6b95d" opacity=".62">
        <circle cx="986" cy="442" r="2.8"/>
        <circle cx="1006" cy="492" r="2.15"/>
        <circle cx="948" cy="542" r="1.72"/>
        <circle cx="1065" cy="374" r="1.8"/>
        <circle cx="1107" cy="303" r="1.45"/>
      </g>
    </g>

    <g mask="url(#centerDotsFade)" opacity=".88">
      <rect x="878" y="284" width="354" height="604" fill="url(#tightDots)" opacity=".68"/>
      <rect x="926" y="386" width="218" height="390" fill="url(#microDots)" opacity=".84"/>
      <rect x="1109" y="390" width="118" height="284" fill="#050505" opacity=".42"/>
    </g>

    <g mask="url(#bottomDotsFade)" opacity=".48">
      <rect x="1180" y="850" width="362" height="118" fill="url(#microDots)"/>
    </g>

    <g opacity=".92">
      <rect x="1125" y="62" width="429" height="326" fill="url(#panelFill)"/>
      <rect x="1125.5" y="62.5" width="428" height="325" fill="none" stroke="#c99542" stroke-opacity=".72" stroke-width="1"/>
      <rect x="1127" y="64" width="144" height="321" fill="url(#panelSheen)" opacity=".86"/>
      <rect x="1127" y="64" width="144" height="321" fill="url(#surfaceHair)" opacity=".52"/>
      <path d="M1125 62V388M1125 388H1553" stroke="#ffd786" stroke-width="1.15"/>
      <path d="M1529 62V388M1386 62V389" stroke="#cda064" stroke-opacity=".1" stroke-width=".85"/>
      <path d="M1125 316H1553" stroke="#c9923f" stroke-opacity=".72" stroke-width="1"/>
      <path d="M1125 316H1553" stroke="#ffe3a2" stroke-opacity=".22" stroke-width="3" filter="url(#softBlur)"/>
      <path d="M1138 316H1220" stroke="#ffebb8" stroke-opacity=".42" stroke-width=".7"/>
      <path d="M1217 315.8H1553" stroke="#d7a047" stroke-opacity=".54" stroke-width=".7"/>
      <circle cx="1262" cy="316" r="3.6" fill="#fff4d2"/>
      <circle cx="1262" cy="316" r="9" fill="#ffae4d" opacity=".38" filter="url(#softBlur)"/>
      <circle cx="1473" cy="316" r="2.3" fill="#ffe3a1"/>
      <circle cx="1528" cy="316" r="2.15" fill="#ffb85a"/>
    </g>

    <g opacity=".78">
      <rect x="1216" y="389" width="337" height="504" fill="url(#lowerPanelFill)"/>
      <rect x="1216" y="389" width="337" height="504" fill="url(#fineGrid)" opacity=".54"/>
      <rect x="1216" y="389" width="337" height="504" fill="url(#surfaceHair)" opacity=".5"/>
      <path d="M1216 389V893M1216 592H1553M1216 893H1404M1472 316V893M1526 315V893" stroke="#d3a157" stroke-opacity=".65" stroke-width="1"/>
      <path d="M1216 592H1553" stroke="#ffe7b1" stroke-opacity=".34" stroke-width="3.2" filter="url(#softBlur)"/>
      <path d="M1216 592H1321" stroke="#fff2ce" stroke-opacity=".82" stroke-width=".9"/>
      <path d="M1321 592H1553" stroke="#b1772d" stroke-opacity=".42" stroke-width=".85"/>
      <path d="M1216 663H1553M1216 745H1405M1216 663H1405V893M1216 745H1405" stroke="#6d5632" stroke-opacity=".22" stroke-width=".8"/>
      <path d="M1317 592V893M1526 389V805M1472 592V893" stroke="#bf914e" stroke-opacity=".24" stroke-width=".8"/>
      <circle cx="1216" cy="592" r="3.4" fill="#fff8dd"/>
      <circle cx="1216" cy="592" r="12" fill="#ffac44" opacity=".42" filter="url(#softBlur)"/>
      <circle cx="1526" cy="442" r="2.05" fill="#ffb75c"/>
      <circle cx="1526" cy="488" r="2.4" fill="#ffc46f"/>
      <circle cx="1526" cy="642" r="2.2" fill="#ffd58e"/>
      <circle cx="1472" cy="592" r="2.4" fill="#f7c36f"/>
      <circle cx="1168" cy="893" r="2.1" fill="#f7d18a"/>
    </g>

    <g opacity=".62">
      <path d="M906 315V893M925 541V695M949 542V695M972 541V695M1012 543V694M1034 544V693M854 590H1216M855 695H1116M904 893H1216" stroke="#c99746" stroke-opacity=".72" stroke-width="1"/>
      <path d="M884 541V695M907 542H972M884 590H1216M854 590H972M854 695H904" stroke="#ffe2a0" stroke-opacity=".22" stroke-width="2" filter="url(#softBlur)"/>
      <path d="M880 544H976M878 582H1009M854 641H1048M854 695H1115" stroke="#d9a34e" stroke-opacity=".46" stroke-width=".8"/>
      <path d="M904 315H906V893H1216" fill="none" stroke="#ffd88b" stroke-opacity=".46" stroke-width=".9"/>
      <circle cx="854" cy="590" r="2.45" fill="#fff3c7"/>
      <circle cx="904" cy="695" r="3.15" fill="#ffe5aa"/>
      <circle cx="949" cy="542" r="2.15" fill="#ffd37d"/>
      <circle cx="1006" cy="542" r="1.75" fill="#f0bd66"/>
      <circle cx="1116" cy="695" r="1.7" fill="#e1a94f"/>
    </g>

    <g opacity=".48">
      <path d="M662 212H1021" stroke="url(#topHairline)" stroke-width="1.1"/>
      <path d="M675 207H1012M893 212H1022M1008 216H1020" stroke="#fff2d2" stroke-opacity=".14" stroke-width=".8"/>
      <circle cx="1019" cy="212" r="1.65" fill="#f5c979"/>
      <path d="M904 315V541M926 542V704M972 542V696" stroke="#e8be72" stroke-opacity=".25" stroke-width=".8"/>
      <path d="M856 695C748 713 667 741 582 801" stroke="#b67d2e" stroke-opacity=".23" fill="none"/>
      <path d="M744 701C793 685 828 681 856 695" stroke="#f3d18c" stroke-opacity=".28" fill="none"/>
    </g>

    <g opacity=".92">
      <rect width="1553" height="1013" fill="url(#beamNodeGlow)"/>
      <rect width="1553" height="1013" fill="url(#lowerNodeGlow)"/>
      <path d="M692 1013L1124 386" stroke="#3b2e19" stroke-opacity=".8" stroke-width="1.1"/>
      <path d="M846 742L1128 381" stroke="url(#diagonalBloom)" stroke-width="26" filter="url(#beamBlur)" opacity=".86"/>
      <path d="M694 1013L1123 386" stroke="url(#diagonalCore)" stroke-width="2.2"/>
      <path d="M856 696L1124 388" stroke="url(#subDiagonal)" stroke-width="1.45"/>
      <path d="M971 557L1122 389" stroke="#fff9e6" stroke-opacity=".95" stroke-width="1.35"/>
      <path d="M1008 512L1122 389" stroke="#ffd489" stroke-opacity=".72" stroke-width=".95"/>
      <path d="M1119 386L1125 388L1125 382" stroke="#fff4ce" stroke-opacity=".96" stroke-width="2"/>
      <circle cx="1124" cy="386" r="3.6" fill="#fff4d0"/>
      <circle cx="1124" cy="386" r="14" fill="#ffb453" opacity=".56" filter="url(#softBlur)"/>
    </g>

    <g fill="none" stroke-linecap="round" opacity=".24">
      <path d="M724 366C812 341 892 340 963 365" stroke="#d6a353" stroke-width=".65"/>
      <path d="M784 436C865 411 930 416 990 455" stroke="#efbd68" stroke-width=".55"/>
      <path d="M772 553C861 521 943 531 1019 582" stroke="#d9a14a" stroke-width=".58"/>
      <path d="M758 742C876 711 1000 709 1117 744" stroke="#a66f2b" stroke-width=".6"/>
      <path d="M1322 519C1403 503 1471 503 1553 522" stroke="#bd7b30" stroke-width=".56"/>
      <path d="M1318 541C1407 528 1476 531 1553 550" stroke="#d0903e" stroke-width=".52"/>
      <path d="M1354 568C1421 559 1487 563 1553 582" stroke="#e3a852" stroke-width=".5"/>
      <path d="M1368 484C1427 477 1486 478 1553 488" stroke="#9a6c30" stroke-width=".48"/>
    </g>

    <g opacity=".72" fill="#f3c26c">
      <text x="1257" y="183" font-family="Arial, Helvetica, sans-serif" font-size="12" letter-spacing=".8" fill="#f0c978">EQ</text>
      <rect x="1375" y="139" width="18" height="10" rx="1.5" fill="none" stroke="#e4ae54" stroke-width="1"/>
      <rect x="1379" y="143" width="7" height="2" fill="#ffe39d"/>
      <circle cx="1389" cy="144" r="1" fill="#f6bf62"/>
      <rect x="1257" y="632" width="12" height="12" fill="none" stroke="#c99643" stroke-width=".9"/>
      <path d="M1260 635L1266 641M1266 635L1260 641" stroke="#f3c36f" stroke-width=".9"/>
      <path d="M958 930L971 943M971 930L958 943" stroke="#f3b84e" stroke-width="1.4"/>
    </g>

    <g opacity=".2" stroke="#f1bf72" stroke-width=".55" stroke-linecap="round">
      <path d="M1244 444C1280 506 1306 561 1320 616" fill="none"/>
      <path d="M1161 188C1138 236 1127 293 1127 359" fill="none"/>
      <path d="M1191 163C1164 243 1149 315 1144 379" fill="none"/>
      <path d="M1234 418C1262 462 1285 520 1298 592" fill="none"/>
      <path d="M1413 455C1470 448 1515 450 1553 462" fill="none"/>
      <path d="M1390 510C1448 498 1502 497 1553 508" fill="none"/>
      <path d="M1230 747C1311 735 1382 735 1443 747" fill="none"/>
      <path d="M1250 805C1317 797 1377 799 1428 810" fill="none"/>
    </g>

    <g opacity=".16">
      <path d="M0 0H1553V1013H0Z" fill="none" stroke="#ffffff" stroke-opacity=".05" stroke-width="2"/>
      <rect width="1553" height="1013" fill="#000" opacity=".1"/>
      <rect width="1553" height="1013" fill="url(#finalVignette)"/>
    </g>
  </g>
</svg>
